<svg width="138" height="26" viewBox="0 0 138 26" fill="none" xmlns="http://www.w3.org/2000/svg">
<path d="M34.0879 4.29102H39.7759C42.4799 4.29102 44.5679 5.02702 46.0399 6.49902C47.5279 7.95502 48.2719 10.035 48.2719 12.739C48.2719 15.443 47.5279 17.531 46.0399 19.003C44.5679 20.475 42.4799 21.211 39.7759 21.211H34.0879V4.29102ZM39.6559 19.531C44.0399 19.531 46.2319 17.267 46.2319 12.739C46.2319 8.22702 44.0399 5.97102 39.6559 5.97102H36.0559V19.531H39.6559Z" fill="#000033"/>
<path d="M60.8341 15.667H52.2901C52.3541 17.027 52.7221 18.059 53.3941 18.763C54.0661 19.451 55.0181 19.795 56.2501 19.795C57.6101 19.795 58.8581 19.331 59.9941 18.403L60.6421 19.819C60.1301 20.299 59.4741 20.683 58.6741 20.971C57.8741 21.243 57.0581 21.379 56.2261 21.379C54.4021 21.379 52.9621 20.843 51.9061 19.771C50.8661 18.699 50.3461 17.219 50.3461 15.331C50.3461 14.131 50.5781 13.075 51.0421 12.163C51.5061 11.235 52.1541 10.515 52.9861 10.003C53.8341 9.49102 54.7941 9.23502 55.8661 9.23502C57.4181 9.23502 58.6341 9.74702 59.5141 10.771C60.3941 11.779 60.8341 13.171 60.8341 14.947V15.667ZM55.8901 10.747C54.8661 10.747 54.0421 11.067 53.4181 11.707C52.8101 12.347 52.4501 13.251 52.3381 14.419H59.1301C59.0981 13.235 58.8021 12.331 58.2421 11.707C57.6821 11.067 56.8981 10.747 55.8901 10.747Z" fill="#000033"/>
<path d="M71.4337 9.54702H73.3777L68.3377 21.211H66.5137L61.4977 9.54702H63.5617L67.4737 19.099L71.4337 9.54702Z" fill="#000033"/>
<path d="M84.5372 15.667H75.9932C76.0572 17.027 76.4252 18.059 77.0972 18.763C77.7692 19.451 78.7212 19.795 79.9532 19.795C81.3132 19.795 82.5612 19.331 83.6972 18.403L84.3452 19.819C83.8332 20.299 83.1772 20.683 82.3772 20.971C81.5772 21.243 80.7612 21.379 79.9292 21.379C78.1052 21.379 76.6652 20.843 75.6092 19.771C74.5692 18.699 74.0492 17.219 74.0492 15.331C74.0492 14.131 74.2812 13.075 74.7452 12.163C75.2092 11.235 75.8572 10.515 76.6892 10.003C77.5372 9.49102 78.4972 9.23502 79.5692 9.23502C81.1212 9.23502 82.3372 9.74702 83.2172 10.771C84.0972 11.779 84.5372 13.171 84.5372 14.947V15.667ZM79.5932 10.747C78.5692 10.747 77.7452 11.067 77.1212 11.707C76.5132 12.347 76.1532 13.251 76.0412 14.419H82.8332C82.8012 13.235 82.5052 12.331 81.9452 11.707C81.3852 11.067 80.6012 10.747 79.5932 10.747Z" fill="#000033"/>
<path d="M86.9015 21.211V4.29102H88.8455V21.211H86.9015Z" fill="#000033"/>
<path d="M96.8276 21.379C95.7236 21.379 94.7476 21.131 93.8996 20.635C93.0676 20.139 92.4196 19.435 91.9556 18.523C91.5076 17.595 91.2836 16.523 91.2836 15.307C91.2836 14.091 91.5076 13.027 91.9556 12.115C92.4196 11.187 93.0676 10.475 93.8996 9.97902C94.7476 9.48302 95.7236 9.23502 96.8276 9.23502C97.9316 9.23502 98.9076 9.48302 99.7556 9.97902C100.604 10.475 101.252 11.187 101.7 12.115C102.164 13.027 102.396 14.091 102.396 15.307C102.396 16.523 102.164 17.595 101.7 18.523C101.252 19.435 100.604 20.139 99.7556 20.635C98.9076 21.131 97.9316 21.379 96.8276 21.379ZM96.8276 19.771C97.9796 19.771 98.8596 19.395 99.4676 18.643C100.092 17.875 100.404 16.763 100.404 15.307C100.404 13.883 100.092 12.787 99.4676 12.019C98.8436 11.235 97.9636 10.843 96.8276 10.843C95.6916 10.843 94.8116 11.235 94.1876 12.019C93.5636 12.787 93.2516 13.883 93.2516 15.307C93.2516 16.747 93.5556 17.851 94.1636 18.619C94.7876 19.387 95.6756 19.771 96.8276 19.771Z" fill="#000033"/>
<path d="M110.672 9.23502C111.696 9.23502 112.6 9.49102 113.384 10.003C114.168 10.515 114.776 11.235 115.208 12.163C115.64 13.075 115.856 14.139 115.856 15.355C115.856 16.571 115.64 17.635 115.208 18.547C114.776 19.443 114.168 20.139 113.384 20.635C112.616 21.131 111.712 21.379 110.672 21.379C109.76 21.379 108.96 21.179 108.272 20.779C107.6 20.379 107.088 19.811 106.736 19.075V25.531H104.792V9.52302H106.736V11.539C107.088 10.803 107.6 10.235 108.272 9.83502C108.96 9.43502 109.76 9.23502 110.672 9.23502ZM110.288 19.771C111.424 19.771 112.304 19.387 112.928 18.619C113.552 17.851 113.864 16.763 113.864 15.355C113.864 13.947 113.552 12.851 112.928 12.067C112.304 11.267 111.424 10.867 110.288 10.867C109.152 10.867 108.272 11.251 107.648 12.019C107.04 12.787 106.736 13.883 106.736 15.307C106.736 16.731 107.04 17.835 107.648 18.619C108.272 19.387 109.152 19.771 110.288 19.771Z" fill="#000033"/>
<path d="M128.053 15.667H119.509C119.573 17.027 119.941 18.059 120.613 18.763C121.285 19.451 122.237 19.795 123.469 19.795C124.829 19.795 126.077 19.331 127.213 18.403L127.861 19.819C127.349 20.299 126.693 20.683 125.893 20.971C125.093 21.243 124.277 21.379 123.445 21.379C121.621 21.379 120.181 20.843 119.125 19.771C118.085 18.699 117.565 17.219 117.565 15.331C117.565 14.131 117.797 13.075 118.261 12.163C118.725 11.235 119.373 10.515 120.205 10.003C121.053 9.49102 122.013 9.23502 123.085 9.23502C124.637 9.23502 125.853 9.74702 126.733 10.771C127.613 11.779 128.053 13.171 128.053 14.947V15.667ZM123.109 10.747C122.085 10.747 121.261 11.067 120.637 11.707C120.029 12.347 119.669 13.251 119.557 14.419H126.349C126.317 13.235 126.021 12.331 125.461 11.707C124.901 11.067 124.117 10.747 123.109 10.747Z" fill="#000033"/>
<path d="M137.041 10.915L135.769 11.035C134.569 11.147 133.697 11.523 133.153 12.163C132.625 12.803 132.361 13.595 132.361 14.539V21.211H130.417V9.52302H132.313V11.563C132.969 10.203 134.257 9.44302 136.177 9.28302L136.873 9.23502L137.041 10.915Z" fill="#000033"/>
<path d="M0 4.51256V21.7677L11.2169 25.786V8.38047L23.3149 3.93237L12.3343 0L0 4.51256Z" fill="#00E599"/>
<path d="M12.1191 9.02519V18.3297L23.3146 22.3265V4.87793L12.1191 9.02519Z" fill="#00AF92"/>
</svg>
