<svg xmlns="http://www.w3.org/2000/svg" width="40" height="43" viewBox="0 0 40 43"><defs><clipPath id="97uya"><path fill="#fff" d="M20.122 10.401a5.19 5.19 0 0 0 5.192-5.2A5.19 5.19 0 0 0 20.122 0a5.196 5.196 0 0 0-5.192 5.2c0 2.873 2.325 5.201 5.192 5.201z"/></clipPath></defs><g><g><g><path fill="none" stroke="#b3b3b3" stroke-linecap="square" stroke-miterlimit="20" stroke-width="2.4" d="M3.85 5.52v0l7.349 7.36a4.32 4.32 0 0 0 3.057 1.268H26.09a4.32 4.32 0 0 0 3.058-1.267l7.348-7.361v0"/></g><g><path fill="none" stroke="#b3b3b3" stroke-linecap="square" stroke-miterlimit="20" stroke-width="2.4" d="M24.17 18.17v6.95a3 3 0 0 0 .564 1.751l8.784 12.218v0"/></g><g><path fill="none" stroke="#b3b3b3" stroke-linecap="square" stroke-miterlimit="20" stroke-width="2.4" d="M16.278 18.17v6.95a3 3 0 0 1-.564 1.751L6.93 39.09v0"/></g><g><path fill="none" stroke="#b3b3b3" stroke-linecap="square" stroke-miterlimit="20" stroke-width="2.4" d="M6 14.143H2"/></g><g><path fill="none" stroke="#b3b3b3" stroke-linecap="square" stroke-miterlimit="20" stroke-width="2.4" d="M38 14.143h-4"/></g><g><path fill="none" stroke="#b3b3b3" stroke-linecap="square" stroke-miterlimit="20" stroke-width="2.4" d="M16.913 34.54v7.141"/></g><g><path fill="none" stroke="#b3b3b3" stroke-linecap="square" stroke-miterlimit="20" stroke-width="2.4" d="M23 34.54v7.141"/></g><g><path fill="none" stroke="#b3b3b3" stroke-linecap="square" stroke-miterlimit="20" stroke-width="4.8" d="M20.122 10.401a5.19 5.19 0 0 0 5.192-5.2A5.19 5.19 0 0 0 20.122 0a5.196 5.196 0 0 0-5.192 5.2c0 2.873 2.325 5.201 5.192 5.201z" clip-path="url(&quot;#97uya&quot;)"/></g></g></g></svg>