<svg width="157" height="26" viewBox="0 0 157 26" fill="none" xmlns="http://www.w3.org/2000/svg">
<path fill-rule="evenodd" clip-rule="evenodd" d="M56.6843 14.2261L54.5296 22.0977H52.2884L49.2844 10.5777H51.7458L53.5309 18.9203H53.5938L55.717 10.5777H57.7223L59.8456 18.9203H59.9085L61.7014 10.5777H64.1628L61.1509 22.0977H58.9098L56.7551 14.2261H56.6843ZM67.4341 20.549C68.4328 20.549 69.2586 19.8863 69.2586 18.9603V18.3376L67.4813 18.4493C66.6242 18.5132 66.1366 18.9044 66.1366 19.5111C66.1366 20.1498 66.6556 20.549 67.4341 20.549ZM66.6792 22.2334C65.075 22.2334 63.8561 21.1796 63.8561 19.6389C63.8561 18.0821 65.0357 17.18 67.1353 17.0522L69.2586 16.9245V16.3577C69.2586 15.5594 68.7081 15.0963 67.8431 15.0963C66.9859 15.0963 66.4433 15.5274 66.3332 16.1581H64.2336C64.3201 14.4976 65.712 13.3559 67.9453 13.3559C70.1078 13.3559 71.5155 14.4896 71.5155 16.214V22.0977H69.2979V20.7885H69.2507C68.7789 21.6986 67.733 22.2334 66.6792 22.2334ZM73.0489 22.0977V10.5777H75.3452V22.0977H73.0489ZM76.9494 22.0977V10.5777H79.2456V22.0977H76.9494ZM84.5773 15.0804C83.5707 15.0804 82.8472 15.8547 82.7686 16.9245H86.3466C86.2995 15.8308 85.5996 15.0804 84.5773 15.0804ZM86.3781 19.4792H88.4856C88.234 21.1557 86.7241 22.2813 84.6402 22.2813C82.0451 22.2813 80.4881 20.5969 80.4881 17.8586C80.4881 15.1283 82.0609 13.3559 84.5537 13.3559C87.0072 13.3559 88.5564 15.0404 88.5564 17.643V18.3535H82.745V18.4972C82.745 19.7187 83.5078 20.5569 84.6795 20.5569C85.5209 20.5569 86.1658 20.1338 86.3781 19.4792ZM90.3493 11.5677H92.6456V13.5396H94.2026V15.2959H92.6456V19.3914C92.6456 20.046 92.9601 20.3574 93.6364 20.3574C93.8409 20.3574 94.0532 20.3414 94.1947 20.3174V22.0339C93.9588 22.0897 93.5656 22.1297 93.1017 22.1297C91.12 22.1297 90.3493 21.4591 90.3493 19.7905V15.2959H89.1619V13.5396H90.3493V11.5677ZM100.675 22.2973C97.3717 22.2973 95.3035 20.054 95.3035 16.3337C95.3035 12.6215 97.3875 10.3782 100.675 10.3782C103.403 10.3782 105.479 12.1345 105.66 14.7131H103.348C103.128 13.3001 102.059 12.374 100.675 12.374C98.8816 12.374 97.7256 13.8988 97.7256 16.3258C97.7256 18.7846 98.8659 20.3015 100.682 20.3015C102.09 20.3015 103.104 19.4632 103.356 18.0981H105.668C105.401 20.6687 103.458 22.2973 100.675 22.2973ZM110.803 22.2813C108.255 22.2813 106.627 20.6208 106.627 17.8107C106.627 15.0404 108.279 13.3559 110.803 13.3559C113.327 13.3559 114.979 15.0325 114.979 17.8107C114.979 20.6288 113.351 22.2813 110.803 22.2813ZM110.803 20.5011C111.928 20.5011 112.643 19.5351 112.643 17.8186C112.643 16.1182 111.92 15.1362 110.803 15.1362C109.686 15.1362 108.955 16.1182 108.955 17.8186C108.955 19.5351 109.671 20.5011 110.803 20.5011ZM116.158 22.0977V13.5396H118.376V15.0644H118.423C118.871 14.0026 119.76 13.3799 121.058 13.3799C122.929 13.3799 123.983 14.5774 123.983 16.5812V22.0977H121.687V17.0682C121.687 15.9505 121.168 15.3119 120.138 15.3119C119.107 15.3119 118.455 16.0783 118.455 17.188V22.0977H116.158ZM125.438 22.0977V13.5396H127.655V15.0644H127.703C128.151 14.0026 129.039 13.3799 130.337 13.3799C132.208 13.3799 133.262 14.5774 133.262 16.5812V22.0977H130.966V17.0682C130.966 15.9505 130.447 15.3119 129.417 15.3119C128.387 15.3119 127.734 16.0783 127.734 17.188V22.0977H125.438ZM138.5 15.0804C137.493 15.0804 136.769 15.8547 136.691 16.9245H140.269C140.222 15.8308 139.522 15.0804 138.5 15.0804ZM140.3 19.4792H142.408C142.156 21.1557 140.646 22.2813 138.562 22.2813C135.967 22.2813 134.41 20.5969 134.41 17.8586C134.41 15.1283 135.983 13.3559 138.476 13.3559C140.929 13.3559 142.479 15.0404 142.479 17.643V18.3535H136.667V18.4972C136.667 19.7187 137.43 20.5569 138.602 20.5569C139.443 20.5569 140.088 20.1338 140.3 19.4792ZM151.318 16.7249H149.186C149.053 15.8228 148.463 15.1841 147.519 15.1841C146.387 15.1841 145.679 16.1581 145.679 17.8107C145.679 19.4952 146.387 20.4532 147.527 20.4532C148.447 20.4532 149.045 19.8943 149.186 18.9603H151.325C151.207 20.9801 149.721 22.2813 147.504 22.2813C144.964 22.2813 143.352 20.6048 143.352 17.8107C143.352 15.0644 144.964 13.3559 147.488 13.3559C149.768 13.3559 151.215 14.785 151.318 16.7249ZM153.048 11.5677H155.344V13.5396H156.901V15.2959H155.344V19.3914C155.344 20.046 155.658 20.3574 156.335 20.3574C156.539 20.3574 156.751 20.3414 156.893 20.3174V22.0339C156.657 22.0897 156.264 22.1297 155.8 22.1297C153.818 22.1297 153.048 21.4591 153.048 19.7905V15.2959H151.86V13.5396H153.048V11.5677Z" fill="#3999FB"/>
<path d="M8.55485 5.08409C15.3574 -1.67744 26.3866 -1.67744 33.1891 5.08409L34.0078 5.89785C34.348 6.23593 34.348 6.78406 34.0078 7.12213L31.2072 9.90585C31.0372 10.0749 30.7614 10.0749 30.5914 9.90585L29.4647 8.78601C24.7191 4.069 17.0249 4.069 12.2792 8.78601L11.0727 9.98526C10.9027 10.1543 10.6269 10.1543 10.4569 9.98526L7.65625 7.20155C7.31612 6.86347 7.31612 6.31534 7.65625 5.97727L8.55485 5.08409ZM38.9811 10.8411L41.4736 13.3186C41.8137 13.6567 41.8137 14.2048 41.4736 14.5429L30.2345 25.7143C29.8944 26.0524 29.343 26.0524 29.0028 25.7143C29.0028 25.7143 29.0028 25.7143 29.0028 25.7143L21.026 17.7856C20.941 17.7011 20.8031 17.7011 20.7181 17.7856C20.7181 17.7856 20.7181 17.7856 20.7181 17.7856L12.7414 25.7143C12.4013 26.0524 11.8499 26.0524 11.5097 25.7144C11.5097 25.7143 11.5097 25.7143 11.5097 25.7143L0.270332 14.5428C-0.0697962 14.2047 -0.0697962 13.6566 0.270332 13.3185L2.76289 10.841C3.10301 10.5029 3.65447 10.5029 3.9946 10.841L11.9715 18.7698C12.0566 18.8543 12.1944 18.8543 12.2795 18.7698C12.2795 18.7698 12.2795 18.7698 12.2795 18.7698L20.256 10.841C20.5961 10.5029 21.1476 10.5029 21.4877 10.8409C21.4877 10.8409 21.4877 10.8409 21.4877 10.8409L29.4646 18.7698C29.5497 18.8543 29.6875 18.8543 29.7726 18.7698L37.7493 10.8411C38.0895 10.503 38.6409 10.503 38.9811 10.8411Z" fill="#3B99FC"/>
</svg>
