<svg width="30" height="37" viewBox="0 0 30 37" fill="none" xmlns="http://www.w3.org/2000/svg">
<path d="M14.7086 15.8345L1.29527 24.1851C0.683778 24.5658 0.663189 25.4486 1.25627 25.8574L14.669 35.1023C15.0153 35.3411 15.474 35.3375 15.8166 35.0935L28.7973 25.8482C29.3734 25.4378 29.3531 24.5753 28.7582 24.1926L15.7782 15.8424C15.4531 15.6333 15.0367 15.6302 14.7086 15.8345Z" stroke="#000033" stroke-width="1.5"/>
<path d="M14.7086 8.83449L1.29527 17.1851C0.683778 17.5658 0.663189 18.4486 1.25627 18.8574L14.669 28.1023C15.0153 28.3411 15.474 28.3375 15.8166 28.0935L28.7973 18.8482C29.3734 18.4378 29.3531 17.5753 28.7582 17.1926L15.7782 8.84241C15.4531 8.63332 15.0367 8.63023 14.7086 8.83449Z" fill="white" stroke="#000033" stroke-width="1.5"/>
<path d="M14.7086 1.83449L1.29527 10.1851C0.683778 10.5658 0.663189 11.4486 1.25627 11.8574L14.669 21.1023C15.0153 21.3411 15.474 21.3375 15.8166 21.0935L28.7973 11.8482C29.3734 11.4378 29.3531 10.5753 28.7582 10.1926L15.7782 1.84241C15.4531 1.63332 15.0367 1.63023 14.7086 1.83449Z" fill="white" stroke="#000033" stroke-width="1.5"/>
</svg>
